<?xml version="1.0" standalone="no"?>
<!DOCTYPE svg PUBLIC "-//W3C//DTD SVG 20010904//EN"
 "http://www.w3.org/TR/2001/REC-SVG-20010904/DTD/svg10.dtd">
<svg version="1.0" xmlns="http://www.w3.org/2000/svg"
 width="1047.000000pt" height="1043.000000pt" viewBox="0 0 1047.000000 1043.000000"
 preserveAspectRatio="xMidYMid meet">

<g transform="translate(0.000000,1043.000000) scale(0.100000,-0.100000)"
fill="#000000" stroke="none">
<path d="M4945 10054 c-110 -7 -338 -35 -490 -61 -788 -132 -1530 -461 -2171
-963 -728 -570 -1283 -1345 -1589 -2220 -65 -185 -149 -494 -175 -645 -79
-445 -85 -516 -85 -955 1 -435 15 -592 91 -970 257 -1284 1060 -2436 2189
-3142 617 -385 1276 -612 2050 -705 211 -25 816 -25 1020 0 540 67 1032 197
1413 373 29 13 55 24 57 24 9 0 271 129 355 176 156 85 361 216 515 327 71 52
256 196 265 206 3 4 55 50 115 103 135 118 317 303 454 463 574 669 959 1495
1101 2365 66 407 78 947 30 1360 -231 1974 -1681 3631 -3605 4120 -427 109
-676 140 -1140 144 -187 2 -367 2 -400 0z m-451 -2621 c28 -67 107 -182 171
-246 265 -270 653 -341 1000 -182 177 82 341 245 423 423 l24 53 407 -3 406
-4 67 -26 c133 -51 234 -128 347 -263 38 -45 76 -89 83 -96 8 -8 40 -45 72
-84 32 -38 75 -88 95 -110 20 -22 93 -105 161 -185 69 -80 127 -147 130 -150
3 -3 32 -36 65 -75 33 -38 109 -126 169 -195 60 -69 132 -152 160 -184 28 -33
59 -68 69 -78 9 -10 17 -24 17 -30 -1 -7 -31 -35 -68 -63 -36 -27 -171 -131
-298 -230 -534 -414 -593 -460 -602 -463 -8 -2 -229 244 -367 410 -27 33 -42
45 -50 37 -7 -7 -11 -442 -12 -1372 l-3 -1362 -1670 -3 -1670 -2 -2 1367 c-2
953 -6 1373 -14 1386 -11 20 -20 12 -131 -119 -23 -27 -50 -59 -60 -70 -10
-12 -69 -80 -132 -153 -63 -72 -116 -131 -118 -131 -3 0 -264 200 -513 394
-52 41 -177 138 -278 216 -117 91 -181 147 -178 156 4 10 541 635 601 700 5 6
62 71 125 144 423 491 441 509 585 580 44 21 103 43 130 48 28 6 228 10 445
11 l395 1 19 -47z"/>
<path d="M5182 6549 c-45 -13 -108 -80 -121 -126 -6 -21 -11 -124 -11 -230 l0
-192 -279 -3 -280 -3 -36 -35 c-96 -93 -83 -361 20 -418 17 -9 32 -20 33 -24
2 -5 125 -8 273 -8 l268 0 3 -667 3 -668 24 -38 c13 -21 42 -50 64 -65 38 -25
48 -27 147 -27 99 0 109 2 147 27 22 15 51 44 64 65 l24 38 3 667 3 667 319 3
319 3 36 35 c96 93 83 361 -20 418 -16 9 -31 20 -33 25 -2 4 -142 7 -312 7
l-309 0 -3 213 c-3 212 -3 214 -30 254 -44 67 -87 87 -193 90 -49 1 -105 -2
-123 -8z"/>
</g>
</svg>
